<svg version="1.2" xmlns="http://www.w3.org/2000/svg" viewBox="0 0 1440 302" width="1440" height="302"><defs><linearGradient id="P" gradientUnits="userSpaceOnUse"/><linearGradient id="g1" x1="103.5" y1="82.5" x2="351.4" y2="979.3" href="#P"><stop stop-color="#7e0eb4"/><stop offset="1" stop-color="#3cabfc"/></linearGradient><clipPath clipPathUnits="userSpaceOnUse" id="cp1"><path d="m726 9h441.75v293h-441.75z"/></clipPath></defs><style>.a{fill:url(#g1)}.b{fill:#fff}</style><path class="a" d="m0 4c0-2.2 1.8-4 4-4h1432c2.2 0 4 1.8 4 4v294c0 2.2-1.8 4-4 4h-1432c-2.2 0-4-1.8-4-4z"/><g clip-path="url(#cp1)"><path  d="m812.4-2.6h489.1v324.6h-489.1z"/></g><path fill-rule="evenodd" class="b" d="m759.2 181.8h1.3v9.1h4.7v1.1h-6zm7.4 6.4c0-2.3 1.4-4 3.4-4 1.6 0 3.3 1 3.3 3.9v0.5h-5.5c0 1.6 1 2.5 2.4 2.5 0.9 0 1.6-0.4 1.9-1.2l1.1 0.3c-0.4 1.2-1.5 1.9-3 1.9-2.3 0-3.6-1.5-3.6-3.9zm5.5-0.7c0-1.2-0.8-2.2-2.1-2.2-1.3 0-2.2 1.1-2.2 2.2zm2.6 2.3c0-1.7 1.5-2 3-2.2 1.3-0.2 1.9-0.2 1.9-0.7v-0.1c0-0.9-0.5-1.5-1.6-1.5-1.1 0-1.7 0.6-2 1.1l-1.1-0.4c0.6-1.4 1.9-1.8 3.1-1.8 0.9 0 2.8 0.3 2.8 2.8v5h-1.2v-1.1c-0.3 0.5-1 1.3-2.3 1.3-1.5 0-2.6-0.9-2.6-2.4zm4.9-0.6v-1.1c-0.2 0.3-1.5 0.4-2 0.5-0.9 0.1-1.7 0.4-1.7 1.3 0 0.8 0.6 1.2 1.6 1.2 1.4 0 2.1-0.9 2.1-1.9zm3-1c0-2.4 1.3-4 3.2-4 1.5 0 2 1 2.2 1.4h0.1v-3.8h1.2v10.2h-1.1v-1.2h-0.2c-0.2 0.4-0.7 1.3-2.2 1.3-1.9 0-3.2-1.5-3.2-3.9zm5.6 0c0-1.7-0.8-2.9-2.2-2.9-1.5 0-2.2 1.3-2.2 2.9 0 1.6 0.7 2.9 2.2 2.9 1.4 0 2.2-1.2 2.2-2.9zm7.5-6.4h1.3v4.5h5.4v-4.5h1.2v10.2h-1.2v-4.6h-5.4v4.6h-1.3zm10.4 0h3.4c2.4 0 3.5 1.3 3.5 3.1 0 1.4-0.6 2.4-1.9 2.9l2.3 4.2h-1.4l-2.2-4q-0.1 0-0.2 0h-2.3v4h-1.2zm3.4 5.1c1.6 0 2.3-0.8 2.3-2 0-1.2-0.7-2-2.3-2h-2.2v4zm9.5-5.1h3.4c2.4 0 3.5 1.4 3.5 3.2 0 1.8-1.1 3.2-3.4 3.2h-2.3v3.7h-1.2zm3.4 5.4c1.7 0 2.3-0.9 2.3-2.1 0-1.3-0.6-2.2-2.3-2.2h-2.2v4.3zm4.9-5.4h7.7v1.1h-3.2v9.1h-1.3v-9.1h-3.2zm8.9 9.4c0-0.5 0.4-0.9 0.9-0.9 0.5 0 0.9 0.4 0.9 0.9 0 0.5-0.4 0.9-0.9 0.9-0.5 0-0.9-0.4-0.9-0.9zm8-9.4h1.2v9.1h4.8v1.1h-6zm7.4 8c0-1.7 1.5-2 2.9-2.2 1.4-0.2 2-0.1 2-0.7 0-1-0.5-1.6-1.6-1.6-1.1 0-1.8 0.6-2 1.2l-1.1-0.4c0.6-1.4 1.9-1.8 3-1.8 1 0 2.9 0.2 2.9 2.7v5h-1.2v-1h-0.1c-0.2 0.5-0.9 1.2-2.2 1.2-1.5 0-2.6-0.9-2.6-2.4zm4.9-0.6v-1c-0.2 0.2-1.5 0.3-2 0.4-1 0.1-1.8 0.4-1.8 1.3 0 0.8 0.7 1.2 1.6 1.2 1.4 0 2.2-0.9 2.2-1.9zm2.7-4.8h1.2l1.7 5.8h0.1l1.6-5.8h1.2l1.7 5.8 1.7-5.8h1.2l-2.3 7.6h-1.2l-1.6-5.9h-0.1l-1.7 5.9h-1.2zm11.4 3.9c0-2.4 1.4-4 3.4-4 1.6 0 3.3 1 3.3 3.8v0.5h-5.5c0 1.7 1 2.5 2.3 2.5 1 0 1.7-0.4 2-1.1l1.1 0.3c-0.4 1.1-1.5 1.9-3.1 1.9-2.2 0-3.5-1.6-3.5-3.9zm5.5-0.7c0-1.3-0.8-2.2-2.1-2.2-1.3 0-2.2 1-2.2 2.2zm4.1 4.4h-1.2v-7.6h1.2v1.2h0.1c0.3-0.8 1-1.3 2.2-1.3 1.5 0 2.6 0.9 2.6 2.9v4.8h-1.2v-4.7c0-1.2-0.7-1.9-1.7-1.9-1.2 0-2 0.7-2 2zm6.7-3.7c0-2.4 1.3-4 3.4-4 1.6 0 2.8 1 3 2.4h-1.1c-0.2-0.7-0.8-1.3-1.9-1.3-1.3 0-2.3 1.1-2.3 2.8 0 1.8 0.9 3 2.3 3 0.9 0 1.6-0.5 1.9-1.4h1.1c-0.2 1.4-1.3 2.4-3 2.4-2.1 0-3.4-1.6-3.4-3.9zm7.8 0c0-2.4 1.4-4 3.4-4 2.1 0 3.5 1.6 3.5 4 0 2.3-1.4 3.9-3.5 3.9-2 0-3.4-1.6-3.4-3.9zm5.7 0c0-1.6-0.7-2.9-2.3-2.9-1.5 0-2.2 1.3-2.2 2.9 0 1.5 0.7 2.9 2.2 2.9 1.6 0 2.3-1.4 2.3-2.9zm4.2 3.7h-1.2v-7.6h1.1v1.2h0.1c0.4-0.8 1.1-1.3 2.3-1.3 1.5 0 2.5 0.9 2.5 2.9v4.8h-1.1v-4.7c0-1.2-0.7-1.9-1.8-1.9-1.1 0-1.9 0.7-1.9 2.1zm12.3 0h-1.2v-10.2h1.2zm3.5 0h-1.2v-7.7h1.2v1.2h0.1c0.3-0.7 1-1.3 2.2-1.3 1.5 0 2.6 1 2.6 2.9v4.9h-1.2v-4.8c0-1.2-0.7-1.9-1.7-1.9-1.2 0-2 0.7-2 2.1zm10.3-6.7h-1.6v4.5c0 1 0.5 1.1 1 1.1 0.3 0 0.4 0 0.5 0l0.3 1c-0.2 0.1-0.5 0.2-0.9 0.2-1 0-2.1-0.7-2.1-2v-4.8h-1.1v-1h1.1v-1.8h1.2v1.8h1.6z"/><path fill-rule="evenodd" class="b" d="m785.2 156.9l3.9 9.5h0.1l3.9-9.5h2.9v13.1h-2.3v-9h-0.1l-3.6 9h-1.7l-3.6-9h-0.1v9h-2.3v-13.1zm19.6 3.3h2.3v9.8h-2.3v-1.7h-0.1c-0.4 1.1-1.5 1.8-2.9 1.8-2 0-3.3-1.3-3.3-3.7v-6.2h2.3v5.9c0 1.2 0.8 2 1.9 2 1 0 2.1-0.7 2.1-2.2zm7 9.8h-2.3v-13.1h2.2v4.9h0.1c0.5-1.1 1.4-1.8 2.9-1.8 2.1 0 3.4 1.4 3.4 3.7v6.3h-2.3v-5.9c0-1.3-0.7-2.1-1.9-2.1-1.3 0-2.1 0.8-2.1 2.2zm8.2-2.7c0-2.2 1.9-2.8 3.8-3 1.7-0.2 2.4-0.2 2.4-0.9 0-1-0.6-1.5-1.7-1.5-1.1 0-1.8 0.5-2 1.2l-2.2-0.3c0.6-1.8 2.1-2.7 4.2-2.7 1.9 0 4 0.8 4 3.4v6.5h-2.2v-1.3h-0.1c-0.4 0.8-1.3 1.5-2.9 1.5-1.9 0-3.3-1-3.3-2.9zm6.2-0.8v-1.1c-0.3 0.2-1.5 0.4-2.1 0.4-1.1 0.2-1.8 0.6-1.8 1.4 0 0.9 0.7 1.3 1.6 1.3 1.4 0 2.3-0.9 2.3-2zm4.6-6.3h2.2v1.7h0.2c0.4-1.1 1.3-1.8 2.7-1.8 1.3 0 2.2 0.7 2.6 1.8h0.1c0.5-1.1 1.5-1.8 3-1.8 1.8 0 3 1.2 3 3.3v6.6h-2.3v-6.2c0-1.2-0.7-1.8-1.7-1.8-1.1 0-1.7 0.8-1.7 1.9v6.1h-2.3v-6.3c0-1-0.7-1.7-1.7-1.7-1 0-1.8 0.9-1.8 2.1v5.9h-2.3zm16.2 0h2.2v1.7h0.1c0.4-1.1 1.4-1.8 2.7-1.8 1.3 0 2.3 0.7 2.7 1.8h0.1c0.4-1.1 1.5-1.8 2.9-1.8 1.8 0 3.1 1.2 3.1 3.4v6.6h-2.3v-6.3c0-1.2-0.8-1.7-1.7-1.7-1.1 0-1.8 0.7-1.8 1.8v6.2h-2.3v-6.4c0-1-0.6-1.6-1.6-1.6-1 0-1.8 0.8-1.8 2v6h-2.3zm15.7 7c0-2.2 1.8-2.8 3.7-3 1.7-0.2 2.4-0.2 2.4-0.8v-0.1c0-1-0.6-1.5-1.6-1.5-1.2 0-1.8 0.6-2 1.2l-2.2-0.3c0.5-1.8 2.1-2.7 4.2-2.7 1.8 0 3.9 0.8 3.9 3.4v6.6h-2.2v-1.4h-0.1c-0.4 0.8-1.3 1.6-2.8 1.6-1.9 0-3.3-1.1-3.3-3zm6.1-0.7v-1.2c-0.3 0.2-1.5 0.4-2.1 0.5-1 0.1-1.8 0.5-1.8 1.4 0 0.8 0.7 1.3 1.7 1.3 1.4 0 2.2-1 2.2-2zm4.3-1.4c0-3.3 1.8-5.1 4-5.1 1.8 0 2.5 1.1 2.8 1.8h0.1v-4.9h2.3v13.1h-2.2v-1.6h-0.2c-0.3 0.7-1.1 1.7-2.8 1.7-2.3 0-4-1.8-4-5zm7 0c0-1.9-0.9-3.2-2.3-3.2-1.6 0-2.4 1.3-2.4 3.2 0 1.8 0.8 3.1 2.4 3.1 1.4 0 2.3-1.2 2.3-3.1zm9.3-8.2h2.3v5.5h6.1v-5.5h2.4v13.1h-2.4v-5.6h-6.1v5.6h-2.3zm12.8 10.3c0-2.2 1.8-2.8 3.7-3 1.8-0.2 2.5-0.2 2.5-0.9 0-1-0.6-1.5-1.7-1.5-1.1 0-1.8 0.6-2 1.2l-2.2-0.3c0.5-1.8 2.1-2.7 4.2-2.7 1.9 0 4 0.8 4 3.4v6.6h-2.2v-1.4h-0.1c-0.4 0.8-1.4 1.6-2.9 1.6-1.9 0-3.3-1.1-3.3-3zm6.2-0.8v-1.1c-0.3 0.2-1.5 0.4-2.2 0.5-1 0.1-1.8 0.5-1.8 1.4 0 0.8 0.7 1.3 1.7 1.3 1.4 0 2.3-1 2.3-2.1zm6.9 3.6h-2.3v-9.9h2.2v1.7h0.1c0.5-1.1 1.5-1.8 3-1.8 2 0 3.3 1.4 3.3 3.7v6.3h-2.3v-5.9c0-1.3-0.7-2.1-1.9-2.1-1.2 0-2.1 0.8-2.1 2.2zm14.3-7c-0.2-0.6-0.7-1.2-1.8-1.2-1 0-1.7 0.5-1.7 1.1 0 0.6 0.4 0.9 1.4 1.2l1.7 0.3c1.8 0.4 2.7 1.3 2.7 2.7 0 1.8-1.7 3.1-4.2 3.1-2.4 0-3.9-1.1-4.2-2.9l2.3-0.2c0.2 0.9 0.9 1.4 1.9 1.4 1.1 0 1.9-0.5 1.9-1.2 0-0.6-0.4-0.9-1.4-1.1l-1.6-0.4c-1.9-0.4-2.8-1.3-2.8-2.8 0-1.8 1.6-2.9 4-2.9 2.3 0 3.6 1 3.9 2.7z"/></svg>