<svg width="67" height="67" viewBox="0 0 67 67" fill="none" xmlns="http://www.w3.org/2000/svg">
<path d="M50.2494 11.1667H16.7493C13.6658 11.1667 11.166 13.6665 11.166 16.7501V50.2501C11.166 53.3337 13.6658 55.8334 16.7493 55.8334H50.2494C53.3329 55.8334 55.8327 53.3337 55.8327 50.2501V16.7501C55.8327 13.6665 53.3329 11.1667 50.2494 11.1667Z" stroke="white" stroke-width="4" stroke-linecap="round" stroke-linejoin="round"/>
<path d="M41.875 25.125H25.125V41.875H41.875V25.125Z" stroke="white" stroke-width="4" stroke-linecap="round" stroke-linejoin="round"/>
<path d="M25.125 2.79175V11.1667" stroke="white" stroke-width="4" stroke-linecap="round" stroke-linejoin="round"/>
<path d="M41.875 2.79175V11.1667" stroke="white" stroke-width="4" stroke-linecap="round" stroke-linejoin="round"/>
<path d="M25.125 55.8333V64.2083" stroke="white" stroke-width="4" stroke-linecap="round" stroke-linejoin="round"/>
<path d="M41.875 55.8333V64.2083" stroke="white" stroke-width="4" stroke-linecap="round" stroke-linejoin="round"/>
<path d="M55.834 25.125H64.209" stroke="white" stroke-width="4" stroke-linecap="round" stroke-linejoin="round"/>
<path d="M55.834 39.0833H64.209" stroke="white" stroke-width="4" stroke-linecap="round" stroke-linejoin="round"/>
<path d="M2.79102 25.125H11.166" stroke="white" stroke-width="4" stroke-linecap="round" stroke-linejoin="round"/>
<path d="M2.79102 39.0833H11.166" stroke="white" stroke-width="4" stroke-linecap="round" stroke-linejoin="round"/>
</svg>
