<svg width="310" height="300" viewBox="0 0 310 300" fill="none" xmlns="http://www.w3.org/2000/svg">
<g opacity="0.7">
<path opacity="0.07" d="M262.04 179.118V168.573C262.04 162.914 258.711 156.527 254.549 154.084L208.905 128.278C204.743 125.921 201.414 128.578 201.414 134.237V144.782C201.414 153.269 205.97 162.7 211.927 167.329L251.615 189.748C257.484 191.935 262.04 187.519 262.04 179.118Z" fill="url(#paint0_linear)"/>
<path opacity="0.4" d="M240.138 196.178V185.633C240.138 179.975 236.809 173.588 232.647 171.144L187.002 145.339C182.841 142.981 179.512 145.639 179.512 151.297V161.842C179.512 170.33 184.067 179.76 190.025 184.39L229.712 206.809C235.582 208.995 240.138 204.58 240.138 196.178Z" fill="url(#paint1_linear)"/>
<path opacity="0.3" d="M144.25 199.865L13.8867 126.221L13.9305 192.706L132.773 259.834L144.294 276.509L144.25 199.865Z" fill="url(#paint2_linear)"/>
<path d="M0 152.155V134.108L49.2367 161.886V179.932L0 152.155Z" fill="#F2994A"/>
<path opacity="0.15" d="M110.739 197.122L82.1777 181.004V186.834L110.739 202.951V197.122Z" fill="white"/>
<path opacity="0.15" d="M110.739 208.824L55.6758 177.746V183.576L110.739 214.654V208.824Z" fill="white"/>
<path opacity="0.15" d="M110.738 220.483L44.0234 182.804V188.634L110.738 226.313V220.483Z" fill="white"/>
<path d="M117.791 207.194C117.791 212.681 121.12 218.983 125.194 221.297C129.268 223.612 132.597 221.04 132.597 215.553C132.597 210.066 129.268 203.765 125.194 201.45C121.076 199.135 117.791 201.707 117.791 207.194Z" fill="#F2994A"/>
<path opacity="0.3" d="M154.412 159.87L284.732 233.514L284.776 299.999L165.933 232.871L154.456 236.558L154.412 159.87Z" fill="url(#paint3_linear)"/>
<path d="M246.84 245.218V227.171L296.033 254.948V272.995L246.84 245.218Z" fill="#F2C94C"/>
<path opacity="0.15" d="M187.924 195.021L216.485 211.138V216.968L187.924 200.85V195.021Z" fill="white"/>
<path opacity="0.15" d="M187.924 206.681L239.482 235.787V241.617L187.924 212.553V206.681Z" fill="white"/>
<path opacity="0.15" d="M187.924 218.383L254.639 256.062V261.892L187.924 224.213V218.383Z" fill="white"/>
<path d="M180.871 197.122C180.871 202.608 177.541 205.18 173.467 202.866C169.394 200.551 166.064 194.25 166.064 188.763C166.064 183.276 169.394 180.704 173.467 183.019C177.585 185.333 180.871 191.635 180.871 197.122Z" fill="#F2C94C"/>
<path opacity="0.15" d="M299.845 154.298L303.131 161.414L275.446 167.715L304.226 206.937L300.94 210.324L265.59 162.099L299.845 154.298Z" fill="white"/>
<path d="M309.001 162.271C309.001 167.801 305.672 170.416 301.598 168.144C297.524 165.829 294.195 159.485 294.195 153.912C294.195 148.383 297.524 145.768 301.598 148.04C305.672 150.354 309.001 156.741 309.001 162.271Z" fill="#F2994A"/>
<path d="M309.001 211.396C309.001 216.926 305.672 219.541 301.598 217.269C297.524 214.954 294.195 208.61 294.195 203.037C294.195 197.508 297.524 194.893 301.598 197.165C305.672 199.522 309.001 205.866 309.001 211.396Z" fill="#F2994A"/>
<path d="M277.417 168.358C277.417 173.888 274.088 176.503 270.014 174.231C265.941 171.916 262.611 165.572 262.611 159.999C262.611 154.469 265.941 151.855 270.014 154.126C274.088 156.441 277.417 162.828 277.417 168.358Z" fill="#F2C94C"/>
<path opacity="0.3" d="M70.875 21.541L144.292 62.9925V196.092L70.875 154.64V21.541Z" fill="url(#paint4_linear)"/>
<path opacity="0.15" d="M78.1035 100.544L137.065 133.851V139.681L78.1035 106.374V100.544Z" fill="white"/>
<path opacity="0.15" d="M82.2227 114.261L132.905 142.895V148.725L82.2227 120.091V114.261Z" fill="white"/>
<path d="M103.643 138.052L52.5664 109.203V124.078L103.643 152.927V138.052Z" fill="#F2C94C"/>
<path d="M115.951 73.8812C115.951 80.3111 112.14 83.3546 107.453 80.6969C102.766 77.9963 98.9551 70.6233 98.9551 64.1505C98.9551 57.7206 102.766 54.6771 107.453 57.3348C112.14 60.0354 115.951 67.4512 115.951 73.8812Z" fill="#F2C94C"/>
<path d="M107.409 85.8842C99.831 81.5548 93.5669 85.627 92.4718 94.929C92.2966 96.5579 93.5231 98.7012 95.0563 99.5585L119.762 113.704C121.295 114.562 122.522 113.876 122.347 112.033C121.295 101.402 114.988 90.2137 107.409 85.8842Z" fill="#F2C94C"/>
<path opacity="0.2" d="M178.723 292.026C152.221 258.677 171.408 246.588 178.723 266.135C186.039 254.904 205.225 288.597 178.723 292.026Z" fill="url(#paint5_linear)"/>
</g>
<defs>
<linearGradient id="paint0_linear" x1="352.604" y1="50.2675" x2="221.179" y2="172.551" gradientUnits="userSpaceOnUse">
<stop stop-color="white"/>
<stop offset="1" stop-color="white" stop-opacity="0"/>
</linearGradient>
<linearGradient id="paint1_linear" x1="330.694" y1="67.3193" x2="199.269" y2="189.603" gradientUnits="userSpaceOnUse">
<stop stop-color="white"/>
<stop offset="1" stop-color="white" stop-opacity="0"/>
</linearGradient>
<linearGradient id="paint2_linear" x1="115.825" y1="173.235" x2="49.6323" y2="226.197" gradientUnits="userSpaceOnUse">
<stop stop-color="white"/>
<stop offset="1" stop-color="white" stop-opacity="0"/>
</linearGradient>
<linearGradient id="paint3_linear" x1="210.39" y1="162.036" x2="226.537" y2="295.876" gradientUnits="userSpaceOnUse">
<stop stop-color="white"/>
<stop offset="1" stop-color="white" stop-opacity="0"/>
</linearGradient>
<linearGradient id="paint4_linear" x1="152.142" y1="33.2719" x2="89.0698" y2="144.938" gradientUnits="userSpaceOnUse">
<stop stop-color="white"/>
<stop offset="1" stop-color="white" stop-opacity="0"/>
</linearGradient>
<linearGradient id="paint5_linear" x1="184.318" y1="267.421" x2="165.074" y2="284.41" gradientUnits="userSpaceOnUse">
<stop stop-color="white"/>
<stop offset="1" stop-color="white" stop-opacity="0"/>
</linearGradient>
</defs>
</svg>
