<svg width="18" height="19" viewBox="0 0 18 19" fill="none" xmlns="http://www.w3.org/2000/svg">
<path fill-rule="evenodd" clip-rule="evenodd" d="M16.1893 2.97745H10.4912V1.63477L1.125 3.08039V15.7518L10.4912 17.3651V15.375H16.1893C16.3619 15.3837 16.5309 15.3237 16.6594 15.2082C16.7879 15.0927 16.8654 14.931 16.875 14.7585V3.59339C16.8653 3.42096 16.7877 3.2594 16.6592 3.14399C16.5307 3.02858 16.3618 2.96871 16.1893 2.97745ZM16.2793 14.8608H10.4721L10.4625 13.7983H11.8614V12.5608H10.4518L10.4451 11.8295H11.8614V10.592H10.4344L10.4276 9.86077H11.8614V8.62327H10.4231V7.89202H11.8614V6.65452H10.4231V5.92327H11.8614V4.68577H10.4231V3.56077H16.2793V14.8608Z" fill="#20744A"/>
<path d="M12.6494 4.68359H15.0811V5.92109H12.6494V4.68359ZM12.6494 6.65291H15.0811V7.89041H12.6494V6.65291ZM12.6494 8.62222H15.0811V9.85972H12.6494V8.62222ZM12.6494 10.5915H15.0811V11.829H12.6494V10.5915ZM12.6494 12.5608H15.0811V13.7983H12.6494V12.5608Z" fill="#20744A"/>
<path fill-rule="evenodd" clip-rule="evenodd" d="M3.5703 6.50373L4.77742 6.43455L5.53623 8.52086L6.43286 6.34848L7.63998 6.2793L6.17411 9.24142L7.63998 12.2109L6.36367 12.1248L5.50192 9.8613L4.63961 12.0387L3.4668 11.9352L4.82917 9.3123L3.5703 6.50373Z" fill="white"/>
</svg>
