<svg width="33" height="33" viewBox="0 0 33 33" fill="none" xmlns="http://www.w3.org/2000/svg">
<circle cx="16.5" cy="16.5" r="16.5" fill="#45A1EF"/>
<path d="M18.9169 12.2501L21.8336 9.33341M23.5002 7.66675L21.8336 9.33341L23.5002 7.66675ZM15.4919 15.6751C15.9222 16.0996 16.2642 16.6051 16.4984 17.1624C16.7325 17.7197 16.8541 18.3178 16.8561 18.9223C16.8581 19.5267 16.7405 20.1257 16.5102 20.6845C16.2798 21.2433 15.9411 21.7511 15.5137 22.1785C15.0863 22.606 14.5785 22.9446 14.0196 23.175C13.4608 23.4054 12.8619 23.523 12.2574 23.5209C11.6529 23.5189 11.0548 23.3973 10.4976 23.1632C9.94026 22.9291 9.43478 22.587 9.01023 22.1567C8.17534 21.2923 7.71336 20.1346 7.72381 18.9328C7.73425 17.7311 8.21627 16.5815 9.06606 15.7317C9.91585 14.882 11.0654 14.3999 12.2671 14.3895C13.4689 14.379 14.6266 14.841 15.4911 15.6759L15.4919 15.6751ZM15.4919 15.6751L18.9169 12.2501L15.4919 15.6751ZM18.9169 12.2501L21.4169 14.7501L24.3336 11.8334L21.8336 9.33341L18.9169 12.2501Z" stroke="#FBFBFB" stroke-width="2" stroke-linecap="round" stroke-linejoin="round"/>
</svg>
