<svg width="33" height="33" viewBox="0 0 33 33" fill="none" xmlns="http://www.w3.org/2000/svg">
<circle cx="16.5" cy="16.5" r="16.5" fill="#45A1EF"/>
<path d="M21.8333 15.1667H10.1667C9.24619 15.1667 8.5 15.9129 8.5 16.8334V22.6667C8.5 23.5872 9.24619 24.3334 10.1667 24.3334H21.8333C22.7538 24.3334 23.5 23.5872 23.5 22.6667V16.8334C23.5 15.9129 22.7538 15.1667 21.8333 15.1667Z" stroke="#FBFBFB" stroke-width="2" stroke-linecap="round" stroke-linejoin="round"/>
<path d="M11.8335 15.1667V11.8334C11.8335 10.7283 12.2725 9.66854 13.0539 8.88714C13.8353 8.10573 14.8951 7.66675 16.0002 7.66675C17.1052 7.66675 18.165 8.10573 18.9464 8.88714C19.7278 9.66854 20.1668 10.7283 20.1668 11.8334V15.1667" stroke="#FBFBFB" stroke-width="2" stroke-linecap="round" stroke-linejoin="round"/>
</svg>
