<svg width="24" height="25" viewBox="0 0 24 25" fill="none" xmlns="http://www.w3.org/2000/svg">
<path d="M21 15.7975C21 16.3574 20.7776 16.8944 20.3817 17.2903C19.9858 17.6862 19.4488 17.9086 18.8889 17.9086H6.22222L2 22.1309V5.24197C2 4.68207 2.22242 4.1451 2.61833 3.74919C3.01424 3.35328 3.55121 3.13086 4.11111 3.13086H18.8889C19.4488 3.13086 19.9858 3.35328 20.3817 3.74919C20.7776 4.1451 21 4.68207 21 5.24197V15.7975Z" stroke="#62B6EE" stroke-width="2" stroke-linecap="round" stroke-linejoin="round"/>
<g clip-path="url(#clip0_3971_85433)">
<path d="M14.9167 10.083H9.08333C8.6231 10.083 8.25 10.4561 8.25 10.9163V13.833C8.25 14.2932 8.6231 14.6663 9.08333 14.6663H14.9167C15.3769 14.6663 15.75 14.2932 15.75 13.833V10.9163C15.75 10.4561 15.3769 10.083 14.9167 10.083Z" stroke="#62B6EE" stroke-width="2" stroke-linecap="round" stroke-linejoin="round"/>
<path d="M10 9.5V8.16667C10 7.72464 10.2107 7.30072 10.5858 6.98816C10.9609 6.67559 11.4696 6.5 12 6.5C12.5304 6.5 13.0391 6.67559 13.4142 6.98816C13.7893 7.30072 14 7.72464 14 8.16667V9.5" stroke="#62B6EE" stroke-width="2" stroke-linecap="round" stroke-linejoin="round"/>
</g>
<defs>
<clipPath id="clip0_3971_85433">
<rect width="10" height="10" fill="white" transform="translate(7 5.5)"/>
</clipPath>
</defs>
</svg>
