<svg width="75" height="76" viewBox="0 0 75 76" fill="none" xmlns="http://www.w3.org/2000/svg">
<path d="M21.0938 17.4043C13.3594 17.4043 7.03125 23.7324 7.03125 31.4668C7.03125 36.1168 9.32109 40.2559 12.818 42.8199C6.6375 45.8855 2.34375 52.2418 2.34375 59.5918H7.03125C7.03125 51.8012 13.3031 45.5293 21.0938 45.5293C28.8844 45.5293 35.1562 51.8012 35.1562 59.5918H39.8438C39.8438 51.8012 46.1156 45.5293 53.9062 45.5293C61.6969 45.5293 67.9688 51.8012 67.9688 59.5918H72.6562C72.6562 52.2395 68.3625 45.8855 62.182 42.8199C63.9715 41.516 65.4281 39.8083 66.4336 37.8357C67.4391 35.863 67.965 33.6809 67.9688 31.4668C67.9688 23.7324 61.6406 17.4043 53.9062 17.4043C46.1719 17.4043 39.8438 23.7324 39.8438 31.4668C39.8438 36.1168 42.1336 40.2559 45.6305 42.8199C42.2061 44.5035 39.3716 47.1844 37.5 50.5098C35.6284 47.1844 32.7939 44.5035 29.3695 42.8199C31.159 41.516 32.6156 39.8083 33.6211 37.8357C34.6266 35.863 35.1525 33.6809 35.1562 31.4668C35.1562 23.7324 28.8281 17.4043 21.0938 17.4043ZM21.0938 22.0918C26.3039 22.0918 30.4688 26.2566 30.4688 31.4668C30.4688 36.677 26.3039 40.8418 21.0938 40.8418C15.8836 40.8418 11.7188 36.677 11.7188 31.4668C11.7188 26.2566 15.8836 22.0918 21.0938 22.0918ZM53.9062 22.0918C59.1164 22.0918 63.2812 26.2566 63.2812 31.4668C63.2812 36.677 59.1164 40.8418 53.9062 40.8418C48.6961 40.8418 44.5312 36.677 44.5312 31.4668C44.5312 26.2566 48.6961 22.0918 53.9062 22.0918Z" fill="#FBFBFB" stroke="#FBFBFB" stroke-width="0.5"/>
</svg>
