    <svg width="52" height="51" viewBox="0 0 52 51" fill="none" xmlns="http://www.w3.org/2000/svg">
    <path d="M41.1667 6.375H10.8333C8.4401 6.375 6.5 8.27779 6.5 10.625V40.375C6.5 42.7222 8.4401 44.625 10.8333 44.625H41.1667C43.5599 44.625 45.5 42.7222 45.5 40.375V10.625C45.5 8.27779 43.5599 6.375 41.1667 6.375Z" stroke="#C2E3FE" stroke-width="3" stroke-linecap="round" stroke-linejoin="round"/>
    <path d="M18.416 21.25C20.2109 21.25 21.666 19.8229 21.666 18.0625C21.666 16.3021 20.2109 14.875 18.416 14.875C16.6211 14.875 15.166 16.3021 15.166 18.0625C15.166 19.8229 16.6211 21.25 18.416 21.25Z" stroke="#C2E3FE" stroke-width="3" stroke-linecap="round" stroke-linejoin="round"/>
    <path d="M45.5006 31.875L34.6673 21.25L10.834 44.625" stroke="#C2E3FE" stroke-width="3" stroke-linecap="round" stroke-linejoin="round"/>
    </svg>