    <svg width="23" height="22" viewBox="0 0 23 22" fill="none" xmlns="http://www.w3.org/2000/svg">
    <path d="M13.29 2.05762H6.13612C5.66179 2.05762 5.20689 2.24604 4.87148 2.58145C4.53608 2.91685 4.34766 3.37175 4.34766 3.84608V18.1538C4.34766 18.6281 4.53608 19.083 4.87148 19.4184C5.20689 19.7538 5.66179 19.9422 6.13612 19.9422H16.8669C17.3412 19.9422 17.7961 19.7538 18.1315 19.4184C18.4669 19.083 18.6553 18.6281 18.6553 18.1538V7.423L13.29 2.05762Z" stroke="#AFAFAF" stroke-width="2" stroke-linecap="round" stroke-linejoin="round"/>
    <path d="M13.2891 2.05762V7.423H18.6544" stroke="#AFAFAF" stroke-width="2" stroke-linecap="round" stroke-linejoin="round"/>
    <path d="M15.0777 11.894H7.92383" stroke="#AFAFAF" stroke-width="2" stroke-linecap="round" stroke-linejoin="round"/>
    <path d="M15.0777 15.4712H7.92383" stroke="#AFAFAF" stroke-width="2" stroke-linecap="round" stroke-linejoin="round"/>
    <path d="M9.71229 8.31738H8.81806H7.92383" stroke="#AFAFAF" stroke-width="2" stroke-linecap="round" stroke-linejoin="round"/>
    </svg>