<svg width="23" height="23" viewBox="0 0 23 23" fill="none" xmlns="http://www.w3.org/2000/svg">
<path d="M9.91342 2.22812C10.7029 1.39074 12.0344 1.39074 12.8239 2.22812L13.918 3.38863C14.3099 3.80437 14.861 4.03262 15.4321 4.0158L17.0264 3.96884C18.1767 3.93497 19.1183 4.87651 19.0844 6.02685L19.0374 7.62112C19.0206 8.19223 19.2489 8.74328 19.6646 9.13522L20.8251 10.2293C21.6625 11.0188 21.6625 12.3503 20.8251 13.1398L19.6646 14.2339C19.2489 14.6259 19.0206 15.1769 19.0374 15.748L19.0844 17.3423C19.1183 18.4926 18.1767 19.4342 17.0264 19.4003L15.4321 19.3533C14.861 19.3365 14.3099 19.5648 13.918 19.9805L12.8239 21.141C12.0344 21.9784 10.7029 21.9784 9.91342 21.141L8.81931 19.9805C8.42736 19.5648 7.87632 19.3365 7.3052 19.3533L5.71093 19.4003C4.56059 19.4342 3.61905 18.4926 3.65293 17.3423L3.69988 15.748C3.7167 15.1769 3.48845 14.6259 3.07271 14.2339L1.9122 13.1398C1.07483 12.3503 1.07483 11.0188 1.9122 10.2293L3.07271 9.13522C3.48845 8.74328 3.7167 8.19223 3.69988 7.62112L3.65293 6.02685C3.61905 4.8765 4.56059 3.93497 5.71093 3.96884L7.3052 4.0158C7.87632 4.03262 8.42736 3.80437 8.81931 3.38863L9.91342 2.22812Z" fill="#9CCA4A"/>
<path d="M14.8687 9.35156L10.0562 14.0182L7.86865 11.897" stroke="#F8FBF2" stroke-width="2" stroke-linecap="round" stroke-linejoin="round"/>
</svg>
